<?xml version="1.0" encoding="UTF-8" standalone="no"?>
<!-- Created with Inkscape (http://www.inkscape.org/) -->

<svg
   width="128"
   height="128"
   viewBox="0 0 33.866666 33.866668"
   version="1.1"
   id="svg5"
   inkscape:version="1.1.2 (0a00cf5339, 2022-02-04)"
   sodipodi:docname="icon.svg"
   inkscape:export-filename="icon.png"
   inkscape:export-xdpi="96"
   inkscape:export-ydpi="96"
   xmlns:inkscape="http://www.inkscape.org/namespaces/inkscape"
   xmlns:sodipodi="http://sodipodi.sourceforge.net/DTD/sodipodi-0.dtd"
   xmlns="http://www.w3.org/2000/svg"
   xmlns:svg="http://www.w3.org/2000/svg">
  <sodipodi:namedview
     id="namedview7"
     pagecolor="#ffffff"
     bordercolor="#666666"
     borderopacity="1.0"
     inkscape:pageshadow="2"
     inkscape:pageopacity="0.0"
     inkscape:pagecheckerboard="true"
     inkscape:document-units="px"
     showgrid="true"
     units="px"
     width="128px"
     inkscape:zoom="11.313708"
     inkscape:cx="65.628348"
     inkscape:cy="89.228037"
     inkscape:window-width="1920"
     inkscape:window-height="1029"
     inkscape:window-x="0"
     inkscape:window-y="27"
     inkscape:window-maximized="1"
     inkscape:current-layer="layer1"
     inkscape:snap-bbox="true"
     inkscape:bbox-nodes="true"
     inkscape:object-nodes="true"
     inkscape:snap-intersection-paths="false"
     inkscape:object-paths="false">
    <inkscape:grid
       type="xygrid"
       id="grid841"
       spacingx="0.79375001"
       spacingy="0.79375001"
       empspacing="8"
       originy="0"
       originx="8.4666667" />
  </sodipodi:namedview>
  <defs
     id="defs2" />
  <g
     inkscape:label="图层 1"
     inkscape:groupmode="layer"
     id="layer1">
    <rect
       style="fill:#c0b090;fill-opacity:1;stroke:#504030;stroke-width:1.04997;stroke-linejoin:round;stroke-miterlimit:4;stroke-dasharray:none;stroke-opacity:1;stop-color:#000000"
       id="rect926"
       width="22.762537"
       height="29.377117"
       x="5.5520649"
       y="2.2447748"
       ry="3.1518908" />
    <path
       d="m 23.851198,15.382701 c 0,0 -0.02298,-0.140998 -0.03642,-0.139725 l -2.558476,0.246853 c -0.203578,0.01966 -0.361688,0.18201 -0.375972,0.386012 l -0.07029,1.007424 -1.97935,0.14121 -0.134634,-0.913024 c -0.02998,-0.203082 -0.207326,-0.356172 -0.4126,-0.356172 H 15.58314 c -0.205204,0 -0.382548,0.15309 -0.412529,0.356172 l -0.134705,0.913024 -1.979351,-0.14121 -0.07029,-1.007424 c -0.01428,-0.204072 -0.172394,-0.366425 -0.375971,-0.386083 l -2.559749,-0.246782 c -0.01322,-0.0013 -0.02291,0.139866 -0.03613,0.139866 l -0.0035,0.55367 2.167866,0.349596 0.07099,1.016404 c 0.01436,0.20577 0.180385,0.372154 0.386296,0.386932 l 2.725991,0.194456 c 0.01032,7.08e-4 0.02051,0.0011 0.03069,0.0011 0.204851,0 0.381912,-0.153161 0.411894,-0.356244 l 0.138523,-0.93947 h 1.980269 l 0.138524,0.93947 c 0.02991,0.203012 0.207184,0.356173 0.412317,0.356173 0.01004,0 0.02008,-3.53e-4 0.02991,-0.0011 l 2.726344,-0.194456 c 0.205841,-0.01478 0.371942,-0.181162 0.386296,-0.386932 l 0.07092,-1.016404 2.166948,-0.351152 z"
       fill="#ffffff"
       stroke-width="0.0226495"
       id="path2595" />
    <path
       d="m 15.341263,4.7816971 c -0.03857,-0.00172 -0.07712,0.00276 -0.114804,0.011032 -0.746673,0.1659962 -1.497569,0.3994768 -2.211559,0.7588595 -0.165298,0.083205 -0.267714,0.2543551 -0.26294,0.439347 0.01289,0.4975921 0.05631,0.9816702 0.111101,1.47023 C 12.67731,7.5723468 12.49175,7.6735304 12.287021,7.8379063 12.141274,7.9498287 11.97873,8.091865 11.819732,8.2233864 11.449352,7.9907848 11.075128,7.7592865 10.678771,7.5598152 10.488729,7.4641304 10.258299,7.5055691 10.113505,7.6614814 9.5745775,8.2414856 9.0622819,8.8760635 8.6392415,9.5960354 c -0.089745,0.1528613 -0.087542,0.3428175 0.00572,0.4935586 0.2797803,0.452568 0.5777633,0.875557 0.8915014,1.285721 v 5.137608 c 0,1.417432 0.9432311,2.498735 2.2924031,3.143758 1.349137,0.645127 3.134622,0.939835 5.098135,0.946713 h 0.0128 c 1.963513,-0.0069 3.748964,-0.301551 5.09779,-0.946713 1.348827,-0.645161 2.291713,-1.726498 2.291713,-3.143758 l 6.73e-4,-5.004191 c 0.318668,-0.467444 0.583055,-0.91946 0.891829,-1.418724 0.09313,-0.1506552 0.09533,-0.340439 0.0057,-0.4932142 C 24.804575,8.8767702 24.291814,8.2419166 23.752921,7.6618951 23.608182,7.5061379 23.377956,7.4646992 23.188,7.5602117 22.791798,7.7596485 22.417436,7.9915433 22.047039,8.2241276 21.888061,8.09252 21.725992,7.9504665 21.57975,7.8383027 c -5.86e-4,0 -0.0011,0 -0.0017,-0.00172 C 21.373701,7.672655 21.188761,7.5716438 21.0037,7.460859 21.05836,6.9723509 21.10185,6.4881522 21.1148,5.990629 21.1196,5.8056199 21.01717,5.6344697 20.851861,5.5512648 20.137836,5.1919338 19.387009,4.9584359 18.639957,4.7924225 c -0.201471,-0.044731 -0.408888,0.044869 -0.514433,0.2222074 -0.24141,0.405734 -0.448465,0.8369105 -0.648764,1.2628295 -0.178442,-0.016203 -0.359538,-0.041025 -0.532274,-0.043094 -0.0019,-1.72e-5 -0.0038,-1.72e-5 -0.0057,0 h -0.01044 c -0.0019,-1.72e-5 -0.0038,-1.72e-5 -0.0057,0 -0.173081,0.00207 -0.354418,0.026821 -0.532946,0.043094 C 16.197437,5.8684983 15.997225,5.456214 15.766502,5.064787 15.758869,5.0474462 15.750213,5.030588 15.740579,5.0142814 15.656457,4.8730209 15.50565,4.7849033 15.341292,4.7809732 Z"
       fill="#ffffff"
       id="path2597"
       style="stroke-width:0.172374" />
    <path
       d="m 15.330059,5.2471071 c -0.720127,0.1600838 -1.43248,0.3829634 -2.100378,0.7191273 0.01528,0.5897433 0.0534,1.1547854 0.130689,1.7287393 -0.259371,0.1661858 -0.531946,0.3088081 -0.774218,0.503315 -0.24615,0.1893529 -0.49754,0.3705353 -0.720437,0.5920014 -0.44526,-0.2945183 -0.91653,-0.5712648 -1.402039,-0.8155878 -0.5233276,0.563215 -1.0126631,1.1710921 -1.4123813,1.8512973 0.300741,0.4864744 0.6146859,0.9425064 0.9536763,1.3752694 h 0.0095 v 4.174899 c 0.0076,6.9e-5 0.01526,0 0.02283,0.0017 l 2.559409,0.246788 c 0.134068,0.01293 0.239135,0.120834 0.248478,0.255182 l 0.07893,1.129826 2.232588,0.159274 0.153813,-1.042743 c 0.01994,-0.13521 0.135903,-0.235411 0.272662,-0.235411 h 2.700239 c 0.136684,0 0.252649,0.100201 0.272592,0.235411 l 0.153813,1.042743 2.232761,-0.159274 0.07887,-1.129826 c 0.0094,-0.134348 0.114403,-0.242185 0.248477,-0.255182 l 2.558376,-0.246788 c 0.0076,0 0.01513,-0.0017 0.02276,-0.0017 v -0.33313 h 0.001 v -3.841356 h 0.0095 c 0.339032,-0.432745 0.65277,-0.888777 0.953649,-1.3752687 C 24.415638,9.1461908 23.926027,8.5382965 23.402699,7.975116 22.917346,8.219439 22.445902,8.4962028 22.000626,8.7907038 21.777815,8.5692377 21.526856,8.3880725 21.280361,8.1987196 21.038175,8.0041783 20.765255,7.8615732 20.506384,7.6954047 20.583459,7.1214335 20.621563,6.5563742 20.636907,5.9666653 19.968975,5.6305187 19.256708,5.4076218 18.536185,5.247538 18.248527,5.7309955 17.985467,6.2545127 17.756365,6.7663258 17.484686,6.7209397 17.211749,6.704116 16.93845,6.7008581 h -0.0053 -0.0052 c -0.273799,0.00328 -0.546494,0.020082 -0.818242,0.065468 C 15.880758,6.2545127 15.617853,5.7309955 15.329764,5.247538 Z M 10.010251,15.928437 c 9.95e-4,0.24734 0.0042,0.518329 0.0042,0.572282 0,2.430647 3.083427,3.598826 6.914268,3.612271 h 0.0094 c 3.830841,-0.01345 6.913234,-1.181693 6.913234,-3.612271 0,-0.05495 0.0033,-0.324821 0.0044,-0.572282 l -2.300504,0.22188 -0.0793,1.135859 c -0.0095,0.136882 -0.118442,0.245823 -0.255338,0.255648 l -2.726268,0.194541 h -0.01987 c -0.135481,0 -0.252373,-0.09941 -0.272385,-0.235463 L 18.045803,16.44063 h -2.224487 l -0.156334,1.060272 c -0.021,0.142674 -0.14858,0.245272 -0.292261,0.234722 L 12.646453,17.5411 c -0.136896,-0.0098 -0.245788,-0.118748 -0.255337,-0.255648 l -0.07926,-1.135876 z"
       fill="#478cbf"
       id="path2599"
       style="stroke-width:0.172374;fill:#988070;fill-opacity:1" />
    <g
       fill="#ffffff"
       stroke-width="0.32031"
       id="g2607"
       transform="matrix(0.17237405,0,0,0.17237405,8.3146077,-172.19474)">
      <path
         d="m 0,0 c 0,-12.052 -9.765,-21.815 -21.813,-21.815 -12.042,0 -21.81,9.763 -21.81,21.815 0,12.044 9.768,21.802 21.81,21.802 C -9.765,21.802 0,12.044 0,0"
         transform="matrix(0.41022,0,0,-0.41022,37.9,1073.8)"
         id="path2601" />
      <path
         d="m 0,0 c -3.878,0 -7.021,2.858 -7.021,6.381 v 20.081 c 0,3.52 3.143,6.381 7.021,6.381 3.878,0 7.028,-2.861 7.028,-6.381 V 6.381 C 7.028,2.858 3.878,0 0,0"
         transform="matrix(0.41022,0,0,-0.41022,50,1083.6)"
         id="path2603" />
      <path
         d="m 0,0 c 0,-12.052 9.765,-21.815 21.815,-21.815 12.041,0 21.808,9.763 21.808,21.815 0,12.044 -9.767,21.802 -21.808,21.802 C 9.765,21.802 0,12.044 0,0"
         transform="matrix(0.41022,0,0,-0.41022,62.101,1073.8)"
         id="path2605" />
    </g>
    <path
       d="m 13.452561,11.969695 c -0.565404,0 -1.023816,0.458532 -1.023816,1.023798 0,0.565284 0.458412,1.023402 1.023816,1.023402 0.565697,0 1.02385,-0.458118 1.02385,-1.023402 0,-0.565266 -0.458153,-1.023798 -1.02385,-1.023798 z m 6.960981,0 c -0.565266,0 -1.023247,0.458532 -1.023247,1.023798 0,0.565284 0.457981,1.023402 1.023247,1.023402 0.565835,0 1.023833,-0.458118 1.023833,-1.023402 0,-0.565266 -0.458015,-1.023798 -1.023833,-1.023798 z"
       fill="#414042"
       id="path2609"
       style="stroke-width:0.172374;fill:#504030;fill-opacity:1" />
    <path
       id="path956"
       style="fill:#000000;fill-opacity:1;stroke:none;stroke-width:0.264583px;stroke-linecap:butt;stroke-linejoin:miter;stroke-opacity:1"
       d="m 9.2604172,23.547917 v 0.529167 H 8.7312505 v 0.529166 h 0.5291667 v 0.529167 H 11.377084 V 26.19375 H 9.2604172 V 25.664584 H 8.7312505 v 1.058333 h 0.5291667 v 0.529167 h 2.6458338 v -0.529167 h 0.529166 v -1.5875 H 11.906251 V 24.60625 H 9.7895839 v -0.529166 h 2.6458331 v -0.529167 z m 3.7041668,0 v 3.704167 h 1.058333 v -2.116667 h 0.529167 V 24.60625 h -0.529167 v -0.529166 h 2.116667 v -0.529167 z m 3.175,0.529167 v 0.529166 h 0.529167 v -0.529166 z m 1.058333,-0.529167 v 1.058333 h 0.529167 v 0.529167 h 0.529167 v 0.529167 h -0.529167 v 0.529166 h -0.529167 v 1.058334 h 1.058334 v -0.529167 h 0.529166 V 26.19375 h 0.529167 v 0.529167 h 0.529167 v 0.529167 h 1.058333 V 26.19375 h -0.529167 v -0.529166 h -0.529166 v -0.529167 h 0.529166 V 24.60625 h 0.529167 v -1.058333 h -1.058333 v 0.529167 h -0.529167 v 0.529166 h -0.529167 v -0.529166 h -0.529166 v -0.529167 z m 4.233334,0 v 3.704167 h 1.058333 v -2.116667 h 1.5875 v 2.116667 h 1.058334 V 25.135417 H 24.606251 V 24.60625 h 0.529167 v -0.529166 h -0.529167 v -0.529167 z m 1.058333,0.529167 h 1.5875 v 0.529166 h -1.5875 z"
       inkscape:export-filename="icon.png"
       inkscape:export-xdpi="96"
       inkscape:export-ydpi="96" />
  </g>
</svg>
